<svg width="25" height="24" viewBox="0 0 25 24" fill="none" xmlns="http://www.w3.org/2000/svg">
<path d="M5.68021 7.79877V23.999H0.309375V7.79877H5.68021ZM6.02187 2.79559C6.03854 4.34823 4.86667 5.59118 2.99479 5.59118H2.9625C1.15625 5.59118 0 4.34823 0 2.79559C0 1.20947 1.20417 0 3.02708 0C4.86667 0 6.00521 1.20947 6.02187 2.79559ZM25 14.7135V23.999H19.6448V15.3349C19.6448 13.1608 18.8635 11.673 16.9271 11.673C15.4458 11.673 14.5667 12.6701 14.176 13.6348C14.0458 13.9947 13.9969 14.4686 13.9969 14.9593V24H8.64167C8.70729 9.32002 8.64167 7.79982 8.64167 7.79982H13.9969V10.1539H13.9646C14.6646 9.04277 15.9344 7.42421 18.8312 7.42421C22.3635 7.42421 25 9.74585 25 14.7156V14.7135Z" fill="#F7F7F7"/>
</svg>
