<svg width="45" height="34" viewBox="0 0 45 34" fill="none" xmlns="http://www.w3.org/2000/svg">
<path d="M6.80889 0.000244141C6.80769 0.000244141 6.80634 0.000244141 6.80514 0.000244141C6.38424 0.000244141 5.98835 0.164322 5.68941 0.46251C5.38718 0.763994 5.2207 1.16542 5.2207 1.59278V25.4725C5.2207 26.3482 5.9359 27.0624 6.81518 27.0646C10.522 27.0735 16.7324 27.846 21.0167 32.3295V7.33866C21.0167 7.04182 20.9409 6.76296 20.7978 6.53221C17.2814 0.869334 10.5241 0.00893504 6.80889 0.000244141Z" fill="#ECECEC"/>
<path d="M39.2841 25.4724V1.59253C39.2841 1.16518 39.1177 0.76375 38.8154 0.462266C38.5165 0.164078 38.1203 0 37.6999 0C37.6985 0 37.6972 0 37.696 0C33.9809 0.00884074 27.2236 0.86924 23.7071 6.53211C23.564 6.76287 23.4883 7.04173 23.4883 7.33857V32.3293C27.7726 27.8458 33.983 27.0732 37.6898 27.0644C38.5689 27.0621 39.2841 26.348 39.2841 25.4724Z" fill="#ECECEC"/>
<path d="M42.9109 5.50708H41.7562V25.4723C41.7562 27.7081 39.9346 29.5313 37.6953 29.5368C34.5512 29.5443 29.3669 30.1591 25.6953 33.6341C32.0454 32.0794 38.7395 33.0901 42.5545 33.9594C43.0308 34.0679 43.523 33.9558 43.9047 33.6517C44.285 33.3482 44.5032 32.8947 44.5032 32.4078V7.09931C44.5033 6.22138 43.7889 5.50708 42.9109 5.50708Z" fill="#ECECEC"/>
<path d="M2.74692 25.4723V5.50708H1.59223C0.714452 5.50708 0 6.22138 0 7.09931V32.4074C0 32.8944 0.218172 33.3478 0.598473 33.6512C0.979824 33.9552 1.47161 34.0678 1.94871 33.959C5.76372 33.0895 12.458 32.0789 18.8077 33.6337C15.1363 30.1588 9.95198 29.5442 6.80782 29.5367C4.56872 29.5313 2.74692 27.7081 2.74692 25.4723Z" fill="#ECECEC"/>
</svg>
