<svg width="55" height="55" viewBox="0 0 55 55" fill="none" xmlns="http://www.w3.org/2000/svg">
<path d="M4.7832 49.0063H49.4205V54.1569H4.7832V49.0063Z" fill="#E25D4F"/>
<path d="M9.56445 40.4224H44.6366V45.5729H9.56445V40.4224Z" fill="#E25D4F"/>
<path d="M14.3477 31.8384H39.8547V36.9888H14.3477V31.8384Z" fill="#E25D4F"/>
<path d="M18.2268 27.3127L27.1013 22.6472L35.9757 27.3127L34.2809 17.431L41.4604 10.4326L31.5384 8.99092L27.1013 0L22.6641 8.99092L12.7422 10.4326L19.9217 17.431L18.2268 27.3127Z" fill="#E25D4F"/>
<path d="M47.8262 12.708H54.2029V15.8964H47.8262V12.708Z" fill="#E25D4F"/>
<path d="M43.7773 23.6768L46.0315 21.4226L50.5398 25.931L48.2857 28.1851L43.7773 23.6768Z" fill="#E25D4F"/>
<path d="M43.7793 4.93457L48.2877 0.426126L50.5419 2.68031L46.0335 7.18876L43.7793 4.93457Z" fill="#E25D4F"/>
<path d="M0 12.708H6.37676V15.8964H0V12.708Z" fill="#E25D4F"/>
<path d="M3.65039 25.9272L8.15869 21.419L10.4129 23.6732L5.90465 28.1815L3.65039 25.9272Z" fill="#E25D4F"/>
<path d="M3.6543 2.67627L5.90856 0.422009L10.417 4.93046L8.16274 7.18472L3.6543 2.67627Z" fill="#E25D4F"/>
</svg>
