<svg width="34" height="33" viewBox="0 0 34 33" fill="none" xmlns="http://www.w3.org/2000/svg">
<path fill-rule="evenodd" clip-rule="evenodd" d="M30.4768 7.1157L26.4062 7.33739L26.6357 3.40427L30.1591 0L34.0001 3.71136L30.4768 7.1157ZM25.7845 9.2992L24.5451 10.4968C26.4405 12.4358 27.4925 14.8525 27.4925 17.3892C27.4925 20.3537 26.2972 23.1413 24.1267 25.2385C21.9562 27.3357 19.0711 28.4907 16.0031 28.4907C12.9351 28.4907 10.0501 27.3357 7.8795 25.2385C5.70895 23.1413 4.51363 20.3537 4.51363 17.3892C4.51363 14.6156 5.58815 11.9777 7.5391 9.96156C9.48567 7.94656 12.1138 6.73419 14.9387 6.54843C17.4921 6.38539 20.0633 7.16479 22.5838 8.86667C22.7474 8.97716 22.9065 9.09099 23.0628 9.20687L24.3759 7.93809L24.5862 4.33267C22.0446 2.76604 19.0907 1.92652 16.0032 1.92652C11.7286 1.92652 7.70983 3.53492 4.68729 6.4554C1.66461 9.37588 0 13.2589 0 17.3892C0 21.5194 1.66461 25.4025 4.68722 28.3229C7.70983 31.2434 11.7285 32.8519 16.0031 32.8519C20.2777 32.8519 24.2965 31.2435 27.319 28.3229C30.3416 25.4024 32.0062 21.5194 32.0062 17.3892C32.0062 14.4059 31.1372 11.5518 29.5159 9.09599L25.7845 9.2992ZM16.0031 22.2045C18.7511 22.2045 20.9867 20.0444 20.9867 17.3892C20.9867 16.409 20.6813 15.4966 20.1585 14.7351L23.1354 11.8587C24.6573 13.436 25.5002 15.3723 25.5002 17.3892C25.5002 19.8395 24.5122 22.1437 22.718 23.8773C20.9238 25.611 18.539 26.5657 16.0031 26.5657C13.4672 26.5657 11.0824 25.611 9.28815 23.8773C7.49398 22.1438 6.50586 19.8395 6.50586 17.3892C6.50586 15.1054 7.38959 12.9345 8.99483 11.2756C10.5961 9.61821 12.755 8.62142 15.0723 8.46903C15.2474 8.45781 15.4229 8.45222 15.5988 8.45222C17.5193 8.45222 19.4827 9.12107 21.4427 10.4444C21.5094 10.4895 21.5749 10.5354 21.6401 10.5814L18.75 13.374C17.9618 12.8689 17.0176 12.5738 16.0031 12.5738C13.2552 12.5738 11.0196 14.734 11.0196 17.3892C11.0196 20.0444 13.2552 22.2045 16.0031 22.2045ZM17.2931 14.7817L15.2988 16.7087L16.7075 18.0697L18.7017 16.1428C18.8893 16.5204 18.9945 16.9432 18.9945 17.3892C18.9945 18.983 17.6526 20.2796 16.0031 20.2796C14.3537 20.2796 13.0117 18.983 13.0117 17.3892C13.0117 15.7954 14.3537 14.4987 16.0031 14.4987C16.4648 14.4987 16.9023 14.6004 17.2931 14.7817Z" fill="#ECECEC"/>
</svg>
