<svg width="55" height="53" viewBox="0 0 55 53" fill="none" xmlns="http://www.w3.org/2000/svg">
<path fill-rule="evenodd" clip-rule="evenodd" d="M30.8535 1.39395C30.595 1.59451 30.3465 1.81038 30.1116 2.04526L27.1011 5.05619L24.1724 2.12714L28.0919 0.167414C28.7027 -0.137773 29.4417 -0.0182617 29.9247 0.465158L30.8535 1.39395ZM46.5121 22.155C48.3002 23.946 48.2998 26.8585 46.5096 28.6483L35.7321 39.4262C33.8811 41.2767 31.4202 42.2965 28.8025 42.2965H26.0583L16.318 52.0364C15.6977 52.6563 14.6924 52.6567 14.0721 52.0364L0.465224 38.4295C-0.155075 37.8092 -0.155075 36.804 0.465224 36.1837L5.60088 31.0476L7.14046 32.5872C8.38313 33.8302 10.0356 34.5146 11.7931 34.5146C13.5506 34.5146 15.2031 33.8298 16.4458 32.5876C17.3076 31.7254 17.9006 30.6659 18.183 29.5113C19.338 29.2285 20.3971 28.6359 21.2593 27.7736C22.1211 26.9118 22.7141 25.8524 22.9965 24.6978C24.1515 24.4149 25.2106 23.8223 26.0728 22.9601C26.9524 22.081 27.5297 21.0124 27.8063 19.8851C28.9626 19.6027 30.0233 19.0097 30.8867 18.1466C33.4519 15.5811 33.4519 11.4069 30.8863 8.84131L29.3467 7.30172L32.3577 4.29121C34.1487 2.5002 37.0624 2.5002 38.8534 4.29121L38.8547 4.29245L38.8551 4.29266L38.8555 4.29286C40.472 5.90978 40.369 7.9977 39.8811 9.23209C40.4447 9.45995 40.962 9.80153 41.4049 10.2444L41.4078 10.2473C43.0235 11.8634 42.9201 13.9513 42.4321 15.1849C42.9912 15.4115 43.5048 15.749 43.9453 16.1865C43.9475 16.1885 43.9496 16.1906 43.9517 16.1927L43.9581 16.1993C45.5746 17.8162 45.4716 19.9037 44.9836 21.1381C45.5465 21.366 46.0634 21.7067 46.5058 22.1488L46.5121 22.155ZM48.6021 31.0474L53.7377 36.1835C54.358 36.8034 54.358 37.8091 53.7377 38.4294L40.1305 52.0363C39.5106 52.6566 38.5049 52.6566 37.885 52.0363L31.1159 45.2672C33.7013 44.8044 36.0816 43.568 37.978 41.6715L48.6021 31.0474ZM9.38673 30.3417C10.7158 31.6712 12.8712 31.6712 14.2002 30.3417C15.5298 29.0126 15.5298 26.8577 14.2002 25.5282C15.5298 26.8577 17.6847 26.8577 19.0142 25.5282C20.3433 24.1991 20.3433 22.0438 19.0142 20.7147C20.3433 22.0438 22.4986 22.0438 23.8277 20.7147C25.1568 19.3856 25.1568 17.2303 23.8277 15.9012C25.1568 17.2303 27.3121 17.2303 28.6412 15.9012C29.9707 14.5717 29.9707 12.4167 28.6412 11.0872L21.8543 4.30034C20.5252 2.97125 18.3699 2.97125 17.0408 4.30034C15.7117 5.62943 15.7117 7.78476 17.0408 9.11386L17.891 9.96449C16.5619 8.63499 14.4066 8.63499 13.0775 9.96449C11.7484 11.2936 11.7484 13.4489 13.0775 14.778L14.7784 16.4789C13.4493 15.1498 11.2939 15.1498 9.96485 16.4789C8.63534 17.808 8.63534 19.9633 9.96485 21.2924L11.6657 22.9937C10.3362 21.6642 8.18128 21.6642 6.85178 22.9937C5.52269 24.3228 5.52269 26.4777 6.85178 27.8072L9.38673 30.3417Z" fill="#E25D4F"/>
</svg>
