<svg width="38" height="39" viewBox="0 0 38 39" fill="none" xmlns="http://www.w3.org/2000/svg">
<path d="M0 27.8604H7.01688V30.0881H0V27.8604Z" fill="#E25D4F"/>
<path d="M4.45703 32.3164H11.4739V34.5442H4.45703V32.3164Z" fill="#E25D4F"/>
<path d="M8.91211 36.7725H15.929V39.0003H8.91211V36.7725Z" fill="#E25D4F"/>
<path d="M23.058 34.3732L1.15474 12.4722C0.406795 13.3815 0 14.5118 0 15.7046C0 17.0668 0.530512 18.3474 1.49374 19.3105L21.1856 39.0001H32.921C35.5768 39.0001 37.765 36.9596 38 34.364L23.058 34.3732Z" fill="#E25D4F"/>
<path d="M37.9913 32.1362C37.6433 28.1175 34.261 24.9535 30.1536 24.9535H28.2093L27.8736 23.2821H21.7033V21.0543H27.4262L26.9664 18.7653H20.813V16.5375H26.5189L25.7173 12.5461L22.5267 9.35594L21.7391 10.1435C21.2815 10.6011 20.6731 10.853 20.026 10.853C19.3789 10.853 18.7705 10.6011 18.3129 10.1435L17.8911 9.72174C16.6096 8.44046 15.9196 6.66736 15.9978 4.85691L16.019 4.36754L12.6224 0.971191L2.71289 10.8798L23.9802 32.1449L37.9913 32.1362Z" fill="#E25D4F"/>
</svg>
