<svg width="34" height="34" viewBox="0 0 34 34" fill="none" xmlns="http://www.w3.org/2000/svg">
<g id="Layer_1" clip-path="url(#clip0_2578_89)">
<g id="Group">
<path id="Vector" fill-rule="evenodd" clip-rule="evenodd" d="M13.6048 34C12.7594 33.9988 11.9393 33.7113 11.278 33.1846C10.6167 32.6578 10.1532 31.9227 9.96292 31.0989H17.2464C17.0562 31.9227 16.5928 32.6578 15.9316 33.1846C15.2703 33.7113 14.4503 33.9988 13.6048 34ZM24.0974 5.51122C24.4221 5.97025 24.7093 6.45468 24.9563 6.9598L25.5114 6.53281L27.5753 6.77307C27.6908 6.78645 27.8078 6.77565 27.9189 6.74135C28.03 6.70706 28.1327 6.65001 28.2205 6.57385L31.1528 4.02491C31.2736 3.91984 31.3618 3.78229 31.4068 3.6286C31.4518 3.47491 31.4517 3.31153 31.4067 3.15787C31.3616 3.0042 31.2733 2.86671 31.1524 2.76171C31.0315 2.6567 30.883 2.58861 30.7245 2.5655L29.225 2.34855L29.2183 0.833294C29.2179 0.673101 29.1715 0.516402 29.0845 0.381864C28.9976 0.247325 28.8738 0.140621 28.7279 0.0744621C28.582 0.00830348 28.4202 -0.0145201 28.2617 0.00871053C28.1032 0.0319412 27.9547 0.100247 27.8339 0.205489L24.9003 2.75589C24.818 2.82669 24.7504 2.91309 24.7016 3.01011C24.6527 3.10713 24.6235 3.21286 24.6157 3.3212L24.4665 5.22706L24.0974 5.51102V5.51122ZM15.0965 12.4339C14.6575 12.1324 14.1373 11.9714 13.6048 11.972C13.412 11.9721 13.2235 11.9149 13.0632 11.8078C12.9029 11.7007 12.7779 11.5485 12.7041 11.3704C12.6303 11.1922 12.611 10.9962 12.6486 10.8071C12.6862 10.618 12.779 10.4443 12.9154 10.308C13.0517 10.1716 13.2254 10.0788 13.4145 10.0412C13.6036 10.0036 13.7996 10.0229 13.9778 10.0967C14.1559 10.1705 14.3081 10.2955 14.4152 10.4558C14.5223 10.6161 14.5795 10.8046 14.5794 10.9974C14.5794 11.2192 14.6675 11.4318 14.8243 11.5886C14.9811 11.7454 15.1937 11.8335 15.4155 11.8335C15.6372 11.8335 15.8499 11.7454 16.0067 11.5886C16.1634 11.4318 16.2515 11.2192 16.2515 10.9974C16.2516 10.4739 16.0964 9.96217 15.8055 9.52687C15.5147 9.09158 15.1014 8.75229 14.6177 8.55194C14.1341 8.35158 13.6019 8.29914 13.0884 8.40126C12.575 8.50338 12.1033 8.75546 11.7331 9.12563C11.363 9.4958 11.1109 9.96743 11.0087 10.4809C10.9066 10.9943 10.959 11.5265 11.1594 12.0102C11.3597 12.4938 11.699 12.9072 12.1343 13.198C12.5696 13.4889 13.0813 13.6441 13.6048 13.6441C13.7975 13.6441 13.9859 13.7013 14.1461 13.8084C14.3062 13.9155 14.4311 14.0677 14.5048 14.2458C14.5785 14.4238 14.5978 14.6197 14.5602 14.8087C14.5225 14.9977 14.4298 15.1713 14.2935 15.3075C14.1573 15.4438 13.9837 15.5366 13.7947 15.5742C13.6057 15.6118 13.4098 15.5926 13.2318 15.5189C13.0537 15.4452 12.9015 15.3203 12.7944 15.1602C12.6873 15 12.6301 14.8117 12.63 14.619C12.63 14.3972 12.5419 14.1846 12.3851 14.0278C12.2283 13.871 12.0157 13.7829 11.7939 13.7829C11.5722 13.7829 11.3596 13.871 11.2028 14.0278C11.046 14.1846 10.9579 14.3972 10.9579 14.619C10.9578 15.0032 11.0414 15.3829 11.2029 15.7316C11.3644 16.0802 11.5998 16.3896 11.8929 16.6381C12.186 16.8866 12.5296 17.0683 12.9 17.1706C13.2704 17.2729 13.6586 17.2934 14.0377 17.2305C14.4168 17.1677 14.7776 17.023 15.0951 16.8067C15.4127 16.5903 15.6793 16.3074 15.8765 15.9776C16.0737 15.6478 16.1967 15.279 16.2369 14.8968C16.2772 14.5147 16.2338 14.1284 16.1098 13.7647L19.1118 11.4551C19.4543 12.8441 19.2598 14.3112 18.5672 15.5629C17.8746 16.8147 16.735 17.7588 15.3762 18.2065C14.0175 18.6542 12.5398 18.5724 11.2388 17.9775C9.93774 17.3826 8.90926 16.3184 8.35905 14.9979C7.80883 13.6773 7.77745 12.1977 8.27118 10.855C8.7649 9.51233 9.74734 8.40553 11.022 7.756C12.2966 7.10646 13.7695 6.96209 15.146 7.35175C16.5225 7.74141 17.7011 8.63637 18.4462 9.85764L15.0965 12.4342V12.4339ZM21.4199 20.5243L17.282 24.6618H9.92733L5.79022 20.5243C1.48138 16.2158 1.48138 9.20393 5.79022 4.89497C10.0994 0.586794 17.111 0.586794 21.4202 4.89497C21.9216 5.39624 22.3734 5.94473 22.7694 6.53281L19.7774 8.83399C18.7657 7.27054 17.1949 6.15279 15.3862 5.70946C13.5776 5.26613 11.6679 5.53074 10.0479 6.44913C8.42797 7.36753 7.22021 8.87028 6.67179 10.6499C6.12338 12.4295 6.27578 14.3514 7.0978 16.0223C7.91982 17.6933 9.34932 18.9869 11.0938 19.6385C12.8382 20.2901 14.7658 20.2505 16.4819 19.5276C18.1981 18.8048 19.5732 17.4535 20.3258 15.7501C21.0784 14.0468 21.1516 12.1203 20.5304 10.3647L23.6037 8.00065C25.5289 12.0979 24.8011 17.1429 21.4202 20.5242L21.4199 20.5243ZM20.4995 27.8801C20.499 28.2902 20.3359 28.6833 20.0459 28.9732C19.7559 29.2631 19.3627 29.4261 18.9527 29.4266H8.25668C8.05277 29.4279 7.8506 29.3889 7.66182 29.3118C7.47304 29.2347 7.30138 29.121 7.15671 28.9773C7.01205 28.8335 6.89724 28.6626 6.81889 28.4744C6.74055 28.2861 6.70021 28.0842 6.70021 27.8803C6.70021 27.6763 6.74055 27.4744 6.81889 27.2862C6.89724 27.0979 7.01205 26.927 7.15671 26.7833C7.30138 26.6395 7.47304 26.5259 7.66182 26.4487C7.8506 26.3716 8.05277 26.3326 8.25668 26.334H18.9527C19.3627 26.3344 19.7558 26.4974 20.0458 26.7872C20.3358 27.0771 20.4989 27.4701 20.4995 27.8801Z" fill="#F9F9F9"/>
</g>
</g>
<defs>
<clipPath id="clip0_2578_89">
<rect width="34" height="34" fill="white"/>
</clipPath>
</defs>
</svg>
