<svg width="44" height="42" viewBox="0 0 44 42" fill="none" xmlns="http://www.w3.org/2000/svg">
<path fill-rule="evenodd" clip-rule="evenodd" d="M9.67955 0.595675L11.4078 2.97427C11.8769 3.61989 11.7338 4.52367 11.0881 4.99267C10.4429 5.46166 9.53916 5.31899 9.06974 4.67312L7.34151 2.29452C6.87243 1.6489 7.01553 0.745205 7.66115 0.276125C8.30668 -0.19304 9.21038 -0.0498609 9.67955 0.595675ZM27.901 10.6146L35.0582 11.6546C37.823 12.0564 38.9265 15.4563 36.9268 17.4057L31.7477 22.454L32.9703 29.5822C33.4415 32.3283 30.5543 34.4382 28.0783 33.1367L21.6766 29.771L15.2751 33.1367C12.8019 34.4365 9.91074 32.3345 10.3829 29.5822L11.6054 22.454L6.42642 17.4057C4.42597 15.4556 5.53136 12.0561 8.29503 11.6546L15.4522 10.6146L18.6531 4.12907C19.8894 1.62381 23.4644 1.62474 24.7001 4.12916L27.901 10.6146ZM5.67271 24.2907C5.42606 23.5318 4.61101 23.1161 3.85185 23.363L0.998842 24.29C0.239846 24.5365 -0.175468 25.3518 0.0710957 26.1109C0.318167 26.8713 1.13491 27.285 1.89196 27.0386L4.74505 26.1116C5.50404 25.8651 5.91936 25.0498 5.67271 24.2907ZM33.6723 0.595699C34.1415 -0.0499213 35.0452 -0.193016 35.6907 0.276149C36.3363 0.745229 36.4795 1.64893 36.0104 2.29455L34.2821 4.67314C33.8131 5.31851 32.9096 5.46194 32.2637 4.99269C31.6181 4.5237 31.4749 3.61991 31.9441 2.97429L33.6723 0.595699ZM42.3525 24.2901L39.4994 23.363C38.7404 23.116 37.9252 23.5318 37.6786 24.2908C37.4319 25.0498 37.8472 25.865 38.6063 26.1116L41.4594 27.0387C42.2169 27.2851 43.0333 26.871 43.2803 26.111C43.5268 25.352 43.1115 24.5368 42.3525 24.2901ZM20.2305 36.9377C20.2305 36.1396 20.8774 35.4927 21.6755 35.4927C22.4736 35.4927 23.1206 36.1396 23.1205 36.9377V39.8705C23.1205 40.6686 22.4735 41.3155 21.6755 41.3155C20.8774 41.3155 20.2305 40.6686 20.2305 39.8705V36.9377Z" fill="#E25D4F"/>
</svg>
