<svg width="140" height="33" viewBox="0 0 140 33" fill="none" xmlns="http://www.w3.org/2000/svg">
<g clip-path="url(#clip0_932_83)">
<path d="M0 4.72752V0.67038H19.7208V4.72752H0ZM7.55071 24.2404V1.17269H12.1682V24.2385H7.55071V24.2404Z" fill="#ECECEC"/>
<path d="M54.2559 24.2405V8.04667H58.6713V24.2405H54.2559ZM58.6732 15.2877L56.9541 14.1478C57.1561 12.1579 57.7408 10.5891 58.7063 9.43769C59.6717 8.28624 61.0665 7.71051 62.8866 7.71051C63.6734 7.71051 64.3805 7.83995 65.0099 8.09497C65.6392 8.35193 66.2123 8.77116 66.729 9.35269L63.9648 12.5037C63.7181 12.2352 63.4208 12.0343 63.0712 11.901C62.7235 11.7676 62.3233 11.7 61.8746 11.7C60.9305 11.7 60.1612 11.9956 59.5649 12.5887C58.9685 13.1819 58.6713 14.0802 58.6713 15.2877H58.6732Z" fill="#ECECEC"/>
<path d="M68.582 24.2404V0.67038H73.1665V24.2404H68.582ZM71.9543 24.2404V20.1833H84.0234V24.2404H71.9543Z" fill="#ECECEC"/>
<path d="M92.4828 24.5747C90.9987 24.5747 89.6623 24.2057 88.4715 23.4676C87.2807 22.7296 86.3483 21.725 85.6742 20.4499C85.0001 19.1748 84.6621 17.7451 84.6621 16.159C84.6621 14.5729 85.0001 13.1084 85.6742 11.8333C86.3483 10.5582 87.2807 9.55359 88.4715 8.81558C89.6623 8.07756 91.0007 7.70856 92.4828 7.70856C93.6503 7.70856 94.6954 7.94233 95.6181 8.41179C96.5389 8.88126 97.2751 9.53427 97.8268 10.3727C98.3766 11.2112 98.6757 12.156 98.7204 13.205V19.0396C98.6757 20.1118 98.3766 21.0623 97.8268 21.8892C97.2751 22.7161 96.5389 23.371 95.6181 23.8502C94.6954 24.3312 93.6503 24.5708 92.4828 24.5708V24.5747ZM93.2929 20.5195C94.5284 20.5195 95.5288 20.1118 96.2941 19.2946C97.0576 18.4793 97.4402 17.4225 97.4402 16.1262C97.4402 15.278 97.2654 14.5226 96.9177 13.8638C96.57 13.205 96.0863 12.6911 95.4685 12.3221C94.8508 11.9531 94.1262 11.7696 93.2948 11.7696C92.4634 11.7696 91.7719 11.9531 91.1541 12.3221C90.5364 12.6911 90.0527 13.205 89.705 13.8638C89.3553 14.5226 89.1824 15.278 89.1824 16.1262C89.1824 16.9743 89.3553 17.7645 89.705 18.4233C90.0527 19.0821 90.5364 19.596 91.1541 19.965C91.7719 20.334 92.4867 20.5175 93.2948 20.5175L93.2929 20.5195ZM97.2033 24.2404V19.8819L97.9103 15.9252L97.2033 12.0362V8.04665H101.586V24.2404H97.2033Z" fill="#ECECEC"/>
<path d="M104.721 24.2404V0H109.136V12.0362L108.394 15.9252L109.103 19.8819V24.2404H104.721ZM113.756 24.5747C112.586 24.5747 111.531 24.3293 110.587 23.8367C109.643 23.3459 108.891 22.6755 108.328 21.8255C107.767 20.9773 107.462 20.0268 107.417 18.9758V13.2089C107.462 12.1579 107.771 11.2132 108.344 10.3766C108.917 9.53814 109.676 8.88514 110.618 8.41567C111.56 7.9462 112.607 7.71243 113.754 7.71243C115.259 7.71243 116.607 8.08144 117.798 8.81945C118.989 9.55746 119.927 10.5621 120.613 11.8372C121.298 13.1104 121.64 14.5535 121.64 16.1629C121.64 17.7722 121.297 19.1806 120.613 20.4538C119.927 21.7269 118.989 22.7335 117.798 23.4715C116.607 24.2095 115.257 24.5785 113.754 24.5785L113.756 24.5747ZM113.013 20.5195C113.822 20.5195 114.536 20.334 115.154 19.9669C115.772 19.5979 116.256 19.084 116.603 18.4252C116.951 17.7664 117.126 17.0013 117.126 16.1281C117.126 15.2548 116.951 14.5246 116.603 13.8658C116.256 13.207 115.766 12.6931 115.137 12.324C114.507 11.955 113.789 11.7715 112.978 11.7715C112.168 11.7715 111.456 11.955 110.838 12.324C110.22 12.6931 109.736 13.207 109.389 13.8658C109.041 14.5246 108.866 15.28 108.866 16.1281C108.866 16.9762 109.039 17.7664 109.389 18.4252C109.736 19.084 110.226 19.5979 110.855 19.9669C111.485 20.3359 112.203 20.5195 113.013 20.5195Z" fill="#ECECEC"/>
<path d="M129.362 24.6094C128.439 24.6094 127.536 24.4858 126.648 24.2404C125.76 23.9951 124.946 23.6531 124.204 23.2184C123.462 22.7818 122.821 22.2524 122.283 21.6265L124.913 18.9777C125.475 19.6037 126.128 20.0732 126.87 20.3862C127.612 20.6991 128.431 20.8556 129.331 20.8556C130.05 20.8556 130.595 20.7552 130.966 20.5542C131.337 20.3533 131.522 20.0519 131.522 19.6481C131.522 19.2019 131.326 18.856 130.931 18.6087C130.537 18.3634 130.026 18.1567 129.397 17.9886C128.767 17.8205 128.111 17.6312 127.425 17.4186C126.739 17.2061 126.083 16.9279 125.453 16.5802C124.824 16.2343 124.313 15.7533 123.919 15.1389C123.526 14.5246 123.328 13.7247 123.328 12.7413C123.328 11.758 123.581 10.819 124.088 10.0598C124.593 9.30051 125.317 8.70739 126.262 8.28236C127.206 7.85732 128.319 7.64481 129.599 7.64481C130.947 7.64481 132.167 7.88051 133.257 8.34998C134.346 8.81944 135.252 9.52268 135.97 10.4616L133.307 13.1104C132.812 12.5076 132.256 12.071 131.639 11.8024C131.021 11.5339 130.353 11.4006 129.632 11.4006C128.979 11.4006 128.48 11.501 128.132 11.7019C127.785 11.9029 127.61 12.183 127.61 12.5404C127.61 12.9423 127.806 13.2552 128.2 13.4794C128.593 13.7035 129.105 13.8986 129.735 14.0667C130.364 14.2348 131.021 14.4241 131.707 14.6366C132.392 14.8491 133.043 15.1447 133.663 15.5253C134.28 15.9059 134.785 16.4082 135.18 17.0342C135.572 17.6601 135.77 18.4658 135.77 19.4472C135.77 21.0353 135.197 22.2911 134.051 23.2184C132.905 24.1458 131.343 24.6094 129.366 24.6094H129.362Z" fill="#ECECEC"/>
<path d="M42.1808 23.9738C40.72 23.9738 39.4049 23.6222 38.2375 22.917C37.068 22.2138 36.1531 21.2459 35.4907 20.0171C34.8283 18.7884 34.4961 17.4128 34.4961 15.8924C34.4961 14.3719 34.8283 13.0099 35.4907 11.8024C36.1531 10.5949 37.07 9.64053 38.2375 8.93536C39.4049 8.23212 40.72 7.87857 42.1808 7.87857C43.3949 7.87857 44.4672 8.11234 45.3997 8.58181C46.3321 9.05128 47.0683 9.69462 47.6083 10.5099C48.1484 11.3271 48.4398 12.2815 48.4844 13.377V18.4735C48.4398 19.5457 48.1406 20.5021 47.5909 21.3405C47.0392 22.179 46.2991 22.8282 45.3666 23.286C44.4342 23.7439 43.3716 23.9738 42.1808 23.9738ZM42.3829 31.5858C40.6521 31.5858 39.1233 31.2786 37.7984 30.6642C36.4717 30.0499 35.4169 29.1843 34.6301 28.0657L37.4274 25.2837C38.0568 26.0217 38.7581 26.5858 39.5351 26.9761C40.3102 27.3664 41.2484 27.5634 42.3498 27.5634C43.7213 27.5634 44.8052 27.2157 45.6036 26.524C46.402 25.8304 46.8002 24.8703 46.8002 23.6415V19.5844L47.5423 16.0315L46.8352 12.4767V8.2186H51.2176V23.5739C51.2176 25.1832 50.8408 26.5858 50.089 27.7817C49.3353 28.9776 48.296 29.9108 46.9712 30.5812C45.6444 31.2516 44.1176 31.5877 42.3868 31.5877L42.3829 31.5858ZM43.0569 19.9843C43.865 19.9843 44.5682 19.8124 45.1646 19.4646C45.759 19.1188 46.2272 18.6377 46.5633 18.0234C46.9013 17.409 47.0683 16.7115 47.0683 15.9272C47.0683 15.1428 46.8993 14.4183 46.5633 13.8155C46.2252 13.2127 45.759 12.7375 45.1646 12.3917C44.5682 12.0458 43.867 11.872 43.0569 11.872C42.2469 11.872 41.5398 12.0458 40.9337 12.3917C40.3276 12.7375 39.8556 13.2185 39.5176 13.8329C39.1796 14.4473 39.0125 15.1466 39.0125 15.9291C39.0125 16.7115 39.1815 17.3761 39.5176 17.9905C39.8537 18.6049 40.3257 19.0917 40.9337 19.4491C41.5398 19.8066 42.2488 19.9862 43.0569 19.9862V19.9843Z" fill="#ECECEC"/>
<path d="M137.304 8.09497C136.785 8.09497 136.323 7.97519 135.919 7.73756C135.515 7.49799 135.196 7.17342 134.965 6.76191C134.734 6.3504 134.619 5.89253 134.619 5.39021C134.619 4.8879 134.734 4.42423 134.961 4.01851C135.186 3.6128 135.505 3.29789 135.905 3.05832C136.303 2.82456 136.766 2.70477 137.3 2.70477C137.834 2.70477 138.296 2.82456 138.704 3.06219C139.114 3.30175 139.431 3.62053 139.658 4.02817C139.883 4.43389 140 4.88404 140 5.38442C140 5.8848 139.885 6.35427 139.658 6.76578C139.433 7.17729 139.114 7.50186 138.71 7.73563C138.306 7.9694 137.84 8.08918 137.31 8.08918L137.306 8.09304L137.304 8.09497ZM137.29 7.65062C137.727 7.65062 138.118 7.55016 138.45 7.35503C138.782 7.1599 139.046 6.88749 139.239 6.54746C139.431 6.20744 139.528 5.82684 139.528 5.39601C139.528 4.96518 139.431 4.5981 139.239 4.26387C139.046 3.92964 138.786 3.6611 138.45 3.46211C138.118 3.26698 137.727 3.16651 137.29 3.16651C136.853 3.16651 136.476 3.26698 136.14 3.46211C135.808 3.66303 135.544 3.92578 135.355 4.26387C135.167 4.6039 135.076 4.97484 135.076 5.39601C135.076 5.81718 135.167 6.20744 135.355 6.54746C135.542 6.88749 135.802 7.1541 136.14 7.35503C136.472 7.55595 136.857 7.65062 137.29 7.65062ZM136.4 6.7368V3.98567H136.94V6.7368H136.4ZM136.781 5.58534V5.17383H137.426C137.556 5.17383 137.657 5.14099 137.735 5.06951C137.807 5.00189 137.846 4.91108 137.846 4.7971C137.846 4.69277 137.807 4.60197 137.735 4.53049C137.663 4.459 137.558 4.42036 137.426 4.42036H136.781V3.98567H137.479C137.739 3.98567 137.955 4.06295 138.127 4.20978C138.3 4.35854 138.382 4.55367 138.382 4.78744C138.382 5.02121 138.294 5.22213 138.127 5.37089C137.955 5.51386 137.737 5.59114 137.469 5.59114H136.785L136.781 5.58727V5.58534ZM137.902 6.7368L136.987 5.53704L137.56 5.4984L138.551 6.7368H137.902Z" fill="#ECECEC"/>
<path d="M23.9202 33.0019C26.4693 33.0019 28.5357 30.9467 28.5357 28.4116C28.5357 25.8764 26.4693 23.8212 23.9202 23.8212C21.3711 23.8212 19.3047 25.8764 19.3047 28.4116C19.3047 30.9467 21.3711 33.0019 23.9202 33.0019Z" fill="#ECECEC"/>
<path d="M19.2755 8.60306H14.6367V12.2545C14.6581 17.3356 18.8074 21.4487 23.9202 21.4487C29.033 21.4487 33.2056 17.3124 33.2056 12.2139V8.60306H28.5648L28.5687 12.2139C28.5687 14.768 26.4883 16.841 23.9202 16.841C21.3521 16.841 19.2911 14.7892 19.2697 12.2545" fill="#ECECEC"/>
</g>
<defs>
<clipPath id="clip0_932_83">
<rect width="140" height="33" fill="white"/>
</clipPath>
</defs>
</svg>
