<svg width="34" height="34" viewBox="0 0 34 34" fill="none" xmlns="http://www.w3.org/2000/svg">
<g id="Group">
<path id="Vector" d="M14.1667 0L28.3333 5.66667L14.1667 11.3333L0 5.66667L14.1667 0Z" fill="#F9F9F9"/>
<path id="Vector_2" d="M12.75 13.8182L0 8.71817V22.6667C0 22.9642 0.184167 23.2277 0.46325 23.3311L12.75 27.8573V13.8182Z" fill="#F9F9F9"/>
<path id="Vector_3" d="M16.604 33.6883C16.3519 33.4376 16.2442 33.0763 16.3136 32.7292L17.2628 27.982C17.3039 27.7752 17.4059 27.5867 17.5532 27.4394L27.9969 16.9957C28.9347 16.0593 30.459 16.0593 31.3969 16.9957L33.2966 18.8955C34.2345 19.8333 34.2345 21.3591 33.2966 22.2969L22.853 32.7406C22.7056 32.8893 22.5158 32.9899 22.3104 33.031L17.5631 33.9802C17.2019 34.0496 16.8477 33.9334 16.604 33.6883Z" fill="#F9F9F9"/>
<path id="Vector_4" d="M25.9937 14.9926C26.6637 14.3225 27.4783 13.8961 28.334 13.6652V8.71817L15.584 13.8182V25.4008L25.9937 14.9926Z" fill="#F9F9F9"/>
</g>
</svg>
