<svg width="34" height="34" viewBox="0 0 34 34" fill="none" xmlns="http://www.w3.org/2000/svg">
<g id="Capa_1" clip-path="url(#clip0_2541_621)">
<g id="Group">
<path id="Vector" d="M8.67008 31.7732L8.18385 31.9502C7.66762 32.1378 7.40021 32.7094 7.58883 33.2257C7.77487 33.7381 8.34241 34.0097 8.86441 33.8208L11.5108 32.8582C11.7587 32.7679 11.9609 32.5831 12.0728 32.3439C12.1846 32.1048 12.1962 31.8306 12.1058 31.5827L11.1423 28.9363C10.9547 28.419 10.383 28.1517 9.86674 28.3413C9.34952 28.5289 9.08311 29.1005 9.27173 29.6168L9.36565 29.8752C4.75938 27.1275 1.99524 22.1753 1.99219 16.999C1.98721 8.64661 9.01859 1.84208 17.1448 1.99533C17.6242 1.94675 18.1443 1.55881 18.1501 1.00946C18.1559 0.460108 17.7145 0.0232564 17.1642 0.0174821C8.00564 -0.22424 0.0280146 7.50576 7.25216e-05 16.9399C-0.0176485 22.9145 3.21321 28.6802 8.67008 31.7732Z" fill="#271E1C"/>
<path id="Vector_2" d="M25.3297 2.22479L25.8159 2.04785C26.3321 1.86022 26.5995 1.28857 26.4109 0.77227C26.2233 0.256038 25.6536 -0.0122988 25.1353 0.177256L22.4889 1.13976C22.241 1.23016 22.0388 1.41494 21.927 1.65407C21.8151 1.8932 21.8035 2.16738 21.8939 2.41534L22.8574 5.06174C23.0469 5.58382 23.6228 5.84306 24.133 5.65676C24.6502 5.46913 24.9166 4.89748 24.728 4.38118L24.6341 4.1228C29.231 6.86484 31.9838 11.7937 32.0075 16.9397C32.0458 25.2449 25.2073 32.0037 17.0027 32.0037C16.9512 32.0037 16.8958 32.0105 16.8452 32.0027C16.2998 32.0027 15.8555 32.4421 15.8497 32.9886C15.8438 33.5378 16.2853 33.9814 16.8355 33.9872C16.891 33.9882 16.9474 33.9882 17.0028 33.9882C26.309 33.9882 34.0051 26.3544 33.9999 16.9991C33.9964 11.1125 30.8232 5.33871 25.3297 2.22479Z" fill="#271E1C"/>
<path id="Vector_3" d="M6.04883 23.0387C6.04883 23.3887 6.23261 23.7124 6.53201 23.8923L16.0044 29.5757V17.5628L6.04883 11.5897V23.0387Z" fill="#271E1C"/>
<path id="Vector_4" d="M16.4885 4.13225L7.04492 9.86476L17.0009 15.8381L26.9562 9.86443L17.5132 4.13225C17.1982 3.94363 16.8035 3.94363 16.4885 4.13225Z" fill="#271E1C"/>
<path id="Vector_5" d="M27.4685 23.8923C27.768 23.7125 27.9517 23.3887 27.9517 23.0387V11.589L17.9961 17.5626V29.5757L27.4685 23.8923Z" fill="#271E1C"/>
</g>
</g>
<defs>
<clipPath id="clip0_2541_621">
<rect width="34" height="34" fill="white"/>
</clipPath>
</defs>
</svg>
