<svg width="40" height="35" viewBox="0 0 40 35" fill="none" xmlns="http://www.w3.org/2000/svg">
<path d="M5.91111 11.6667C8.06213 11.6667 10.0309 10.4897 11.0494 8.59507C11.5724 7.62549 12.7243 7 13.9844 7H16.5045C17.7646 7 18.9165 7.62549 19.4383 8.5939C20.458 10.4897 22.4268 11.6667 24.5778 11.6667C27.7941 11.6667 30.4111 9.04968 30.4111 5.83333C30.4111 2.61699 27.7941 0 24.5778 0C22.4268 0 20.458 1.17693 19.4395 3.0716C18.9165 4.04118 17.7646 4.66667 16.5045 4.66667H13.9844C12.7243 4.66667 11.5724 4.04118 11.0506 3.07277C10.0309 1.17693 8.06213 0 5.91111 0C2.69477 0 0 2.61699 0 5.83333C0 9.04968 2.69477 11.6667 5.91111 11.6667ZM23.4111 4.66667H25.7444V7H23.4111V4.66667Z" fill="#E25D4F"/>
<path d="M5.91111 34.9999C8.06213 34.9999 10.0309 33.823 11.0494 31.9283C11.5724 30.9587 12.7243 30.3333 13.9844 30.3333H16.5045C17.7646 30.3333 18.9165 30.9587 19.4383 31.9272C20.458 33.823 22.4268 34.9999 24.5778 34.9999C27.7941 34.9999 30.4111 32.3829 30.4111 29.1666C30.4111 25.9502 27.7941 23.3333 24.5778 23.3333C22.4268 23.3333 20.458 24.5102 19.4395 26.4049C18.9165 27.3744 17.7646 27.9999 16.5045 27.9999H13.9844C12.7243 27.9999 11.5724 27.3744 11.0506 26.406C10.0309 24.5102 8.06213 23.3333 5.91111 23.3333C2.69477 23.3333 0 25.9502 0 29.1666C0 32.3829 2.69477 34.9999 5.91111 34.9999ZM23.4111 27.9999H25.7444V30.3333H23.4111V27.9999Z" fill="#E25D4F"/>
<path d="M28.7738 14.7383C28.2508 15.7079 27.0989 16.3334 25.8389 16.3334H23.3187C22.0586 16.3334 20.9067 15.7079 20.3849 14.7395C19.3653 12.8437 17.3965 11.6667 15.2454 11.6667C12.0291 11.6667 9.41211 14.2837 9.41211 17.5001C9.41211 20.7164 12.0291 23.3334 15.2454 23.3334C17.3965 23.3334 19.3653 22.1565 20.3838 20.2618C20.9067 19.2922 22.0586 18.6667 23.3187 18.6667H25.8389C27.0989 18.6667 28.2508 19.2922 28.7726 20.2606C29.7923 22.1565 31.7611 23.3334 33.9121 23.3334C37.1285 23.3334 39.8232 20.7164 39.8232 17.5001C39.8232 14.2837 37.1285 11.6667 33.9121 11.6667C31.7611 11.6667 29.7923 12.8437 28.7738 14.7383ZM16.4121 18.6667H14.0788V16.3334H16.4121V18.6667Z" fill="#E25D4F"/>
</svg>
