<svg width="49" height="55" viewBox="0 0 49 55" fill="none" xmlns="http://www.w3.org/2000/svg">
<path d="M18.776 26.5208C19.3745 27.0202 19.998 27.5412 20.6431 28.0871C21.2883 27.5412 21.9116 27.0202 22.5102 26.5208C27.2881 22.5338 30.1709 20.1255 30.1709 17.083C30.1709 14.5863 28.4635 12.7037 26.201 12.7037C23.3321 12.7037 22.1194 15.5137 22.107 15.5416L22.1044 15.548C20.6999 15.5479 20.5868 15.5479 19.1823 15.5478C19.1109 15.3895 17.8843 12.7036 15.0851 12.7036C12.8226 12.7036 11.1152 14.5862 11.1152 17.0829C11.1152 20.1254 13.9981 22.5337 18.776 26.5208Z" fill="#E25D4F"/>
<path d="M28.5833 54.2025V44.463H36.5232C39.1501 44.463 41.287 42.326 41.287 39.6991V34.3288L48.4751 30.7869L41.2808 20.1535C41.0204 8.99592 31.8632 0 20.6435 0C9.261 0 0 9.261 0 20.6435C0 26.2681 2.30593 31.6554 6.35185 35.54V54.2025H28.5833ZM15.0856 9.52778C17.7297 9.52778 19.5286 10.8351 20.6435 12.0834C21.7586 10.8351 23.5574 9.52778 26.2014 9.52778C30.2086 9.52778 33.3472 12.8464 33.3472 17.083C33.3472 21.6127 29.8457 24.5343 24.5467 28.9586C23.6442 29.7123 20.6435 32.2633 20.6435 32.2633C20.6435 32.2633 17.6428 29.7123 16.7403 28.9586C11.4414 24.5343 7.93982 21.6127 7.93982 17.083C7.93982 12.8464 11.0786 9.52778 15.0856 9.52778Z" fill="#E25D4F"/>
</svg>
