<svg width="39" height="34" viewBox="0 0 39 34" fill="none" xmlns="http://www.w3.org/2000/svg">
<path d="M30.6758 0H21.6091C17.2351 0 13.6758 3.55935 13.6758 7.93333C13.6758 11.9233 16.6364 15.2347 20.4758 15.7859V19.2667C20.4758 19.7248 20.7513 20.1388 21.1753 20.3136C21.5933 20.4881 22.0837 20.3946 22.4105 20.0679L26.6117 15.8667H30.6758C35.0498 15.8667 38.6847 12.3073 38.6847 7.93333C38.6847 3.55935 35.0498 0 30.6758 0ZM21.6091 9.06651C20.9831 9.06651 20.4758 8.55908 20.4758 7.93318C20.4758 7.30728 20.9831 6.79985 21.6091 6.79985C22.235 6.79985 22.7424 7.30728 22.7424 7.93318C22.7424 8.55908 22.235 9.06651 21.6091 9.06651ZM26.1424 9.06651C25.5164 9.06651 25.0091 8.55908 25.0091 7.93318C25.0091 7.30728 25.5164 6.79985 26.1424 6.79985C26.7684 6.79985 27.2758 7.30728 27.2758 7.93318C27.2758 8.55908 26.7684 9.06651 26.1424 9.06651ZM30.6758 9.06651C30.0497 9.06651 29.5424 8.55908 29.5424 7.93318C29.5424 7.30728 30.0497 6.79985 30.6758 6.79985C31.3017 6.79985 31.8091 7.30728 31.8091 7.93318C31.8091 8.55908 31.3017 9.06651 30.6758 9.06651Z" fill="#ECECEC"/>
<path d="M25.4622 34C27.3371 34 28.8622 32.4749 28.8622 30.6V26.0667C28.8622 25.5786 28.5501 25.1458 28.0875 24.992L21.3034 22.7253C20.9714 22.6136 20.6084 22.6644 20.3162 22.857L17.432 24.7795C14.3772 23.323 10.7526 19.6983 9.29605 16.6436L11.2185 13.7593C11.4121 13.4682 11.4609 13.1041 11.3502 12.7721L9.08352 5.98805C8.92976 5.5255 8.49698 5.21338 8.00889 5.21338H3.4C1.52516 5.21338 0 6.7226 0 8.59744C0 21.6551 12.4046 34 25.4622 34Z" fill="#ECECEC"/>
</svg>
