<svg width="29" height="29" viewBox="0 0 29 29" fill="none" xmlns="http://www.w3.org/2000/svg">
<path d="M28.9985 14.5328C28.9985 12.5308 28.6243 10.6545 27.876 8.90393C27.1276 7.15333 26.0839 5.6065 24.7449 4.26347C23.4059 2.92043 21.8627 1.87433 20.1151 1.12518C18.3676 0.376033 16.4956 0.000972281 14.4993 1.8782e-06C12.5029 -0.000968524 10.631 0.374092 8.88342 1.12518C7.13588 1.87628 5.59262 2.92237 4.25364 4.26347C2.91467 5.60456 1.87098 7.15138 1.12259 8.90393C0.374197 10.6565 0 12.5328 0 14.5328C0 16.3066 0.283673 17.9782 0.851019 19.5473C1.41837 21.1164 2.2355 22.5381 3.30242 23.8122C4.36934 25.0864 5.60617 26.1553 7.01292 27.0189C8.41967 27.8826 9.94017 28.474 11.5744 28.7933V18.8996H8.71496V14.5328H11.5744V10.917C11.5744 9.96216 11.8126 9.09801 12.2889 8.3246C12.7653 7.55119 13.3781 6.93693 14.1275 6.48181C14.8769 6.02669 15.7279 5.79913 16.6806 5.79913H20.2879V10.1659H17.4285C17.0199 10.1659 16.668 10.3139 16.3727 10.6099C16.0774 10.9059 15.9297 11.2358 15.9297 11.5997V14.5342H20.2865V18.901H15.9297V29C17.7906 28.8176 19.5153 28.3173 21.1041 27.4993C22.6929 26.6812 24.0769 25.6235 25.2561 24.3261C26.4353 23.0286 27.3541 21.5502 28.0125 19.8908C28.6708 18.2314 29 16.4459 29 14.5342L28.9985 14.5328Z" fill="#F7F7F7"/>
</svg>
