<svg width="55" height="55" viewBox="0 0 55 55" fill="none" xmlns="http://www.w3.org/2000/svg">
<path fill-rule="evenodd" clip-rule="evenodd" d="M17.4678 12.9156L17.4697 12.9154H33.3472C34.2243 12.9154 34.9352 12.2046 34.9352 11.3275C34.9352 10.4504 34.2243 9.73951 33.3472 9.73951H20.3991L24.6796 3.17593H30.1713C31.0484 3.17593 31.7593 2.46506 31.7593 1.58796C31.7593 0.710862 31.0484 0 30.1713 0H23.8194C23.2827 0 22.7823 0.270864 22.4895 0.720373L16.6074 9.73951H1.58796C0.710862 9.73951 0 10.4504 0 11.3275C0 12.2046 0.710862 12.9154 1.58796 12.9154H17.4601L17.4634 12.9157L17.4659 12.9158L17.4678 12.9156ZM16.3762 37.6934C14.9429 36.8713 13.9744 35.3267 13.9744 33.5589C13.9744 26.2621 19.9106 20.3259 27.2074 20.3259H32.6607L32.9175 16.0913H2.01834L4.23777 52.7104C4.28863 53.5486 4.98295 54.2024 5.82284 54.2024H15.5665C14.5674 52.8745 13.9744 51.2246 13.9744 49.4385C13.9744 47.3795 15.2878 45.6216 17.1205 44.9579C16.4709 43.9617 16.0917 42.774 16.0917 41.4987C16.0917 40.2221 16.4717 39.0332 17.1226 38.0362C16.6049 37.9196 16.3175 37.805 16.3762 37.6934ZM18.7382 35.1468C17.8611 35.1468 17.1502 34.4359 17.1502 33.5588C17.1502 28.0134 21.6619 23.5017 27.2073 23.5017H44.1456C49.6911 23.5017 54.2027 28.0134 54.2027 33.5588C54.2027 34.4359 53.4918 35.1468 52.6147 35.1468H18.7382ZM22.444 38.3229C20.6898 38.3229 19.2681 39.7446 19.2681 41.4988C19.2681 43.253 20.6898 44.6747 22.444 44.6747H48.9101C50.6643 44.6747 52.086 43.253 52.086 41.4988C52.086 39.7446 50.6643 38.3229 48.9101 38.3229H22.444ZM18.7382 47.8507H52.6147C53.4918 47.8507 54.2027 48.5615 54.2027 49.4386C54.2027 52.0654 52.0656 54.2025 49.4388 54.2025H21.9141C19.2874 54.2025 17.1502 52.0654 17.1502 49.4386C17.1502 48.5615 17.8611 47.8507 18.7382 47.8507Z" fill="#E25D4F"/>
</svg>
