<svg width="29" height="29" viewBox="0 0 29 29" fill="none" xmlns="http://www.w3.org/2000/svg">
<path d="M7.90909 0C5.72486 0 3.74627 0.887136 2.31605 2.31605C0.885818 3.74495 0 5.72486 0 7.90909V21.0909C0 23.2751 0.887136 25.2537 2.31605 26.684C3.74495 28.1142 5.72486 29 7.90909 29H21.0909C23.2751 29 25.2537 28.1129 26.684 26.684C28.1142 25.255 29 23.2751 29 21.0909V7.90909C29 5.72486 28.1129 3.74627 26.684 2.31605C25.255 0.885818 23.2751 0 21.0909 0H7.90909ZM7.90909 2.63636H21.0909C22.5475 2.63636 23.863 3.22559 24.8187 4.18127C25.7744 5.13695 26.3636 6.4525 26.3636 7.90909V21.0909C26.3636 22.5475 25.7744 23.863 24.8187 24.8187C23.863 25.7744 22.5475 26.3636 21.0909 26.3636H7.90909C6.4525 26.3636 5.13695 25.7744 4.18127 24.8187C3.22559 23.863 2.63636 22.5475 2.63636 21.0909V7.90909C2.63636 6.4525 3.22559 5.13695 4.18127 4.18127C5.13695 3.22559 6.4525 2.63636 7.90909 2.63636ZM21.0764 13.4758C20.8787 12.1945 20.3237 11.0279 19.5025 10.092C18.5086 8.95705 17.1245 8.16086 15.5361 7.92491C14.9245 7.82736 14.2575 7.82341 13.5891 7.92227C11.7885 8.18855 10.266 9.16268 9.26286 10.5151C8.25973 11.8676 7.76936 13.6089 8.03695 15.4082C8.30455 17.2075 9.27736 18.7314 10.6298 19.7345C11.9823 20.7376 13.7236 21.228 15.5229 20.9604C17.3222 20.6928 18.846 19.72 19.8492 18.3675C20.8523 17.0151 21.3427 15.2738 21.0751 13.4745L21.0764 13.4758ZM18.469 13.8633C18.6299 14.9442 18.3372 15.9843 17.7335 16.7989C17.1298 17.6135 16.2176 18.1949 15.138 18.3544C14.0584 18.5139 13.017 18.2225 12.2024 17.6188C11.3878 17.0151 10.8065 16.1029 10.647 15.0233C10.4875 13.9437 10.7788 12.9024 11.3825 12.0877C11.9862 11.2731 12.8984 10.6918 13.978 10.5323C14.3906 10.4716 14.7887 10.4769 15.1248 10.5296C16.1003 10.6746 16.9255 11.1492 17.5213 11.8294C18.0156 12.3935 18.3517 13.0988 18.4704 13.8633H18.469ZM21.75 8.56818C22.4776 8.56818 23.0682 7.97764 23.0682 7.25C23.0682 6.52236 22.4776 5.93182 21.75 5.93182C21.0224 5.93182 20.4318 6.52236 20.4318 7.25C20.4318 7.97764 21.0224 8.56818 21.75 8.56818Z" fill="#F7F7F7"/>
</svg>
