<svg width="43" height="43" viewBox="0 0 43 43" fill="none" xmlns="http://www.w3.org/2000/svg">
<path d="M42.544 20.3919L36.144 13.9904C35.5343 13.3815 35.7244 12.7305 36.5645 12.5413C36.5645 12.5413 37.2585 12.3848 38.1134 11.53C39.9486 9.69566 39.9468 6.71766 38.1134 4.88596C36.2773 3.05082 33.3035 3.05082 31.4675 4.88596C30.6127 5.74075 30.457 6.43388 30.457 6.43388C30.2677 7.27573 29.615 7.46411 29.007 6.85355L22.6071 0.457295C21.9982 -0.152432 21.0007 -0.152432 20.3918 0.457295L13.9927 6.85539C13.3847 7.46596 13.573 8.11869 14.4132 8.30698C14.4132 8.30698 15.1081 8.46353 15.962 9.31656C17.7946 11.1509 17.7972 14.1272 15.962 15.9632C14.1277 17.7975 11.1495 17.7957 9.31701 15.9632C8.46306 15.1075 8.30651 14.4135 8.30651 14.4135C8.11813 13.5725 7.46457 13.3841 6.85577 13.993L0.456665 20.3928C-0.152222 21.0017 -0.152222 21.9984 0.456665 22.6063L6.85577 29.0061C7.46465 29.615 7.27544 30.2676 6.43526 30.4568C6.43526 30.4568 5.74129 30.6142 4.88642 31.4682C3.05119 33.3042 3.05119 36.2788 4.88642 38.1131C6.72072 39.9474 9.69628 39.9491 11.5314 38.1131C12.3871 37.2583 12.5419 36.5652 12.5419 36.5652C12.7311 35.7233 13.3839 35.535 13.9918 36.1464L20.3918 42.5427C21.0007 43.1524 21.9982 43.1524 22.6071 42.5427L29.0079 36.1446C29.6168 35.5357 29.4267 34.8813 28.5874 34.6939C28.5874 34.6939 27.8917 34.5373 27.0377 33.6843C25.2016 31.8483 25.2025 28.8737 27.0377 27.0377C28.872 25.2034 31.8476 25.2008 33.6827 27.0377C34.5375 27.8925 34.6923 28.5874 34.6923 28.5874C34.8823 29.4292 35.5342 29.6184 36.144 29.0096L42.5439 22.6081C43.152 21.9975 43.152 21.0008 42.544 20.3919Z" fill="#ECECEC"/>
</svg>
