<svg width="55" height="55" viewBox="0 0 55 55" fill="none" xmlns="http://www.w3.org/2000/svg">
<path d="M27.1018 36.4764C22.78 36.4764 18.9294 34.426 16.4676 31.248C15.1097 34.2257 13.5488 36.3728 12.1855 37.8645C14.1019 38.8182 15.6304 39.355 16.2718 39.5625V52.6118C16.2718 53.4887 16.9827 54.1997 17.8597 54.1997H36.3436C37.2206 54.1997 37.9315 53.4887 37.9315 52.6118V39.5625C38.5729 39.355 40.1014 38.8182 42.0178 37.8645C40.6545 36.3728 39.0938 34.2257 37.7357 31.248C35.2742 34.4259 31.4237 36.4764 27.1018 36.4764Z" fill="#E25D4F"/>
<path d="M53.7812 22.9951C53.1754 21.6284 51.9968 20.6324 50.5479 20.2625L50.4043 20.2258C48.233 19.6712 45.9692 20.6783 44.8988 22.6763C44.2773 23.8376 43.3744 24.9518 42.2149 25.9881C41.4515 26.6704 40.6264 27.2727 39.7539 27.7935C41.2899 32.0332 43.3118 34.6956 44.8782 36.2629C48.8387 33.7826 51.7821 30.7555 53.6307 27.2599C54.3364 25.9256 54.3912 24.3711 53.7812 22.9951Z" fill="#E25D4F"/>
<path d="M14.4483 27.7937C13.5758 27.2727 12.7509 26.6706 11.9873 25.9883C10.8278 24.952 9.92487 23.8377 9.30316 22.6757C8.23314 20.6786 5.96914 19.671 3.79809 20.2258L3.65476 20.2625C2.20555 20.6324 1.02692 21.6285 0.421093 22.9952C-0.188864 24.3712 -0.134029 25.9257 0.571624 27.2601C2.42023 30.7557 5.36363 33.7827 9.32412 36.2631C10.8904 34.6958 12.9123 32.0333 14.4483 27.7937Z" fill="#E25D4F"/>
<path d="M27.1003 12.7559C21.4363 12.7559 16.8281 17.3639 16.8281 23.0281C16.8281 28.6922 21.4363 33.3003 27.1003 33.3003C32.7644 33.3003 37.3725 28.6922 37.3725 23.0281C37.3725 17.3639 32.7645 12.7559 27.1003 12.7559ZM29.9539 23.7925C29.1917 24.5547 28.1783 24.9745 27.1003 24.9745C26.0224 24.9745 25.009 24.5547 24.2468 23.7925C23.6268 23.1723 23.6268 22.167 24.2468 21.5469C24.8669 20.9268 25.8724 20.9268 26.4924 21.5469C26.6548 21.7093 26.8706 21.7987 27.1002 21.7987C27.3298 21.7987 27.5457 21.7093 27.7081 21.5469C28.3281 20.9269 29.3335 20.9267 29.9536 21.5469C30.5739 22.167 30.5739 23.1723 29.9539 23.7925Z" fill="#E25D4F"/>
<path d="M27.1016 6.99937C27.9785 6.99937 28.6894 6.28843 28.6894 5.41149V1.58788C28.6894 0.710947 27.9785 0 27.1016 0C26.2246 0 25.5137 0.710947 25.5137 1.58788V5.41149C25.5137 6.28853 26.2246 6.99937 27.1016 6.99937Z" fill="#E25D4F"/>
<path d="M18.3309 9.08872C18.6411 9.39889 19.0474 9.55386 19.4538 9.55386C19.8601 9.55386 20.2666 9.39878 20.5765 9.08872C21.1966 8.46871 21.1966 7.46326 20.5765 6.84314L17.8728 4.13941C17.2527 3.51929 16.2473 3.51929 15.6272 4.13941C15.0071 4.75942 15.0071 5.76487 15.6272 6.38499L18.3309 9.08872Z" fill="#E25D4F"/>
<path d="M34.748 9.55378C35.1544 9.55378 35.5608 9.3987 35.8709 9.08864L38.5745 6.38491C39.1946 5.76489 39.1946 4.75945 38.5745 4.13933C37.9545 3.51931 36.949 3.51931 36.3289 4.13933L33.6252 6.84306C33.0052 7.46308 33.0052 8.46852 33.6252 9.08864C33.9352 9.3987 34.3416 9.55378 34.748 9.55378Z" fill="#E25D4F"/>
</svg>
