<svg width="36" height="9" viewBox="0 0 36 9" fill="none" xmlns="http://www.w3.org/2000/svg">
<path fill-rule="evenodd" clip-rule="evenodd" d="M4.2381 0C1.90121 0 0 1.90121 0 4.2381C0 6.57498 1.90121 8.47619 4.2381 8.47619C6.57498 8.47619 8.47619 6.57498 8.47619 4.2381C8.47619 1.90121 6.57498 0 4.2381 0ZM17.8 0C15.4631 0 13.5619 1.90121 13.5619 4.2381C13.5619 6.57498 15.4631 8.47619 17.8 8.47619C20.1368 8.47619 22.038 6.57498 22.038 4.2381C22.038 1.90121 20.1368 0 17.8 0ZM27.1237 4.2381C27.1237 1.90121 29.0249 0 31.3618 0C33.6987 0 35.5999 1.90121 35.5999 4.2381C35.5999 6.57498 33.6987 8.47619 31.3618 8.47619C29.0249 8.47619 27.1237 6.57498 27.1237 4.2381Z" fill="#E25D4F"/>
</svg>
