<?xml version="1.0" standalone="no"?>
<!DOCTYPE svg PUBLIC "-//W3C//DTD SVG 20010904//EN"
 "http://www.w3.org/TR/2001/REC-SVG-20010904/DTD/svg10.dtd">
<svg version="1.0" xmlns="http://www.w3.org/2000/svg"
 width="696.000000pt" height="696.000000pt" viewBox="0 0 696.000000 696.000000"
 preserveAspectRatio="xMidYMid meet">
<metadata>
Created by potrace 1.14, written by Peter Selinger 2001-2017
</metadata>
<g transform="translate(0.000000,696.000000) scale(0.100000,-0.100000)"
fill="#000000" stroke="none">
<path d="M411 6338 c1 -343 4 -627 7 -632 3 -5 6 -23 8 -40 11 -117 31 -230
64 -356 12 -47 23 -92 25 -100 2 -8 15 -49 30 -90 27 -77 33 -95 36 -108 8
-30 147 -321 159 -332 3 -3 11 -16 18 -30 14 -30 22 -43 87 -138 28 -41 55
-81 60 -90 6 -10 12 -19 16 -22 3 -3 18 -23 35 -45 16 -22 38 -49 49 -61 11
-12 39 -43 62 -70 157 -185 423 -401 661 -536 84 -47 225 -114 327 -156 62
-25 271 -92 305 -98 14 -3 41 -9 60 -14 19 -5 49 -12 65 -14 17 -3 41 -8 55
-11 14 -3 45 -8 70 -11 25 -3 52 -7 60 -9 67 -18 426 -25 570 -11 92 9 228 29
280 43 14 3 32 7 40 8 12 1 66 14 90 20 3 1 19 5 35 10 68 17 272 88 307 106
21 11 38 17 38 15 0 -7 247 121 280 144 16 11 31 20 34 20 12 0 180 117 261
181 242 191 481 463 620 704 16 28 32 52 35 55 7 7 83 160 115 235 15 33 33
74 41 92 17 39 54 156 51 164 -1 3 3 12 9 20 7 8 15 30 20 49 11 50 11 50 14
53 1 1 3 9 5 17 36 175 45 222 51 260 3 25 8 54 10 65 12 63 18 291 18 780 l1
550 -648 3 -647 2 0 -27 c0 -16 -1 -271 -1 -568 -1 -577 -4 -609 -54 -790 -26
-89 -114 -285 -141 -312 -8 -8 -14 -18 -14 -23 0 -37 -266 -320 -300 -320 -6
0 -10 -4 -10 -9 0 -12 -155 -108 -230 -143 -58 -26 -166 -67 -197 -72 -10 -2
-36 -9 -58 -14 -22 -6 -62 -14 -90 -18 -27 -3 -59 -8 -70 -10 -31 -6 -235 -5
-285 2 -291 39 -561 167 -749 355 -88 88 -191 217 -191 239 0 5 -3 10 -7 10
-5 0 -13 10 -19 23 -18 37 -65 130 -80 160 -8 16 -14 32 -14 37 0 5 -5 21 -12
37 -6 15 -12 33 -14 38 -20 73 -33 128 -39 165 -4 25 -10 54 -12 65 -3 11 -6
279 -7 595 l-1 575 -648 3 -648 2 2 -622z"/>
<path d="M2830 2569 c-19 -5 -52 -11 -74 -14 -125 -20 -339 -106 -462 -187
-107 -70 -259 -213 -317 -298 -17 -25 -33 -47 -37 -50 -21 -19 -96 -159 -134
-253 -59 -147 -89 -303 -90 -467 0 -86 3 -124 19 -241 6 -47 51 -204 71 -249
52 -114 119 -236 144 -260 3 -3 14 -18 25 -35 31 -50 176 -198 227 -233 13 -9
25 -19 28 -22 10 -12 101 -70 110 -70 4 0 10 -4 12 -9 9 -24 276 -132 362
-145 21 -4 42 -8 46 -11 27 -17 312 -26 400 -13 30 5 69 10 85 13 105 15 313
97 440 172 117 70 283 227 367 348 62 89 118 187 118 206 0 7 7 20 15 29 8 9
16 25 18 36 2 10 9 33 16 49 16 38 49 174 59 240 9 65 9 316 -1 380 -43 271
-167 515 -362 710 -138 139 -320 257 -470 305 -22 7 -49 16 -60 21 -29 11 -67
22 -90 25 -11 1 -20 3 -20 4 0 2 -18 5 -80 16 -60 9 -325 12 -365 3z"/>
</g>
</svg>
